<svg width="24" height="15" viewBox="0 0 24 15" fill="none" xmlns="http://www.w3.org/2000/svg">
<path d="M1.5 0.5C0.947715 0.5 0.5 0.947715 0.5 1.5H1.5V0.5ZM22.5 0.5H1.5V1.5H22.5V0.5ZM23.5 1.5C23.5 0.947715 23.0523 0.5 22.5 0.5V1.5H23.5ZM22.5 2.5C23.0523 2.5 23.5 2.05228 23.5 1.5H22.5V2.5ZM1.5 2.5H22.5V1.5H1.5V2.5ZM0.5 1.5C0.5 2.05228 0.947715 2.5 1.5 2.5V1.5H0.5ZM1.5 6.34471C0.947715 6.34471 0.5 6.79243 0.5 7.34471H1.5V6.34471ZM22.5 6.34471H1.5V7.34471H22.5V6.34471ZM23.5 7.34471C23.5 6.79243 23.0523 6.34471 22.5 6.34471V7.34471H23.5ZM22.5 8.34471C23.0523 8.34471 23.5 7.897 23.5 7.34471H22.5V8.34471ZM1.5 8.34471H22.5V7.34471H1.5V8.34471ZM0.5 7.34471C0.5 7.897 0.947715 8.34471 1.5 8.34471V7.34471H0.5ZM1.5 13.1894V12.1894C0.947715 12.1894 0.5 12.6371 0.5 13.1894H1.5ZM1.5 13.1894H0.5C0.5 13.7417 0.947716 14.1894 1.5 14.1894V13.1894ZM22.5 13.1894H1.5V14.1894H22.5V13.1894ZM22.5 13.1894V14.1894C23.0523 14.1894 23.5 13.7417 23.5 13.1894H22.5ZM22.5 13.1894H23.5C23.5 12.6371 23.0523 12.1894 22.5 12.1894V13.1894ZM1.5 13.1894H22.5V12.1894H1.5V13.1894Z" fill="black"/>
</svg>
