<svg width="19" height="19" viewBox="0 0 19 19" fill="none" xmlns="http://www.w3.org/2000/svg">
<path d="M18.1311 17.1795C18.1935 17.242 18.2431 17.3162 18.2769 17.3978C18.3107 17.4794 18.3281 17.5669 18.3281 17.6553C18.3281 17.7436 18.3107 17.8311 18.2769 17.9128C18.2431 17.9944 18.1935 18.0686 18.1311 18.1311C18.0686 18.1935 17.9944 18.2431 17.9128 18.2769C17.8311 18.3107 17.7436 18.3281 17.6553 18.3281C17.5669 18.3281 17.4794 18.3107 17.3978 18.2769C17.3162 18.2431 17.242 18.1935 17.1795 18.1311L9.49903 10.4619L1.81856 18.1311C1.69237 18.2572 1.52123 18.3281 1.34278 18.3281C1.16433 18.3281 0.993182 18.2572 0.866997 18.1311C0.740812 18.0049 0.669922 17.8337 0.669922 17.6553C0.669922 17.4768 0.740812 17.3057 0.866997 17.1795L8.53614 9.49903L0.866997 1.81856C0.740812 1.69237 0.669922 1.52123 0.669922 1.34278C0.669922 1.16433 0.740812 0.993182 0.866997 0.866997C0.993182 0.740812 1.16433 0.669922 1.34278 0.669922C1.52123 0.669922 1.69237 0.740812 1.81856 0.866997L9.49903 8.53614L17.1795 0.866997C17.3057 0.740812 17.4768 0.669922 17.6553 0.669922C17.8337 0.669922 18.0049 0.740812 18.1311 0.866997C18.2572 0.993182 18.3281 1.16433 18.3281 1.34278C18.3281 1.52123 18.2572 1.69237 18.1311 1.81856L10.4619 9.49903L18.1311 17.1795Z" fill="black"/>
</svg>
