<svg width="29" height="29" viewBox="0 0 29 29" fill="none" xmlns="http://www.w3.org/2000/svg">
<path d="M28.5752 26.5089C28.8473 26.7845 29 27.1569 29 27.5449C29 27.933 28.8473 28.3053 28.5752 28.581C28.2982 28.8498 27.928 29 27.5427 29C27.1574 29 26.7871 28.8498 26.5101 28.581L14.5 16.5116L2.48988 28.581C2.21288 28.8498 1.84265 29 1.45734 29C1.07203 29 0.70179 28.8498 0.424793 28.581C0.152662 28.3053 0 27.933 0 27.5449C0 27.1569 0.152662 26.7845 0.424793 26.5089L12.453 14.4576L0.424793 2.40639C0.193701 2.12385 0.0756043 1.76517 0.0934729 1.4001C0.111341 1.03503 0.263898 0.689687 0.521468 0.431234C0.779039 0.172782 1.12321 0.0197036 1.48703 0.00177384C1.85085 -0.0161559 2.20831 0.102345 2.48988 0.334228L14.5 12.4036L26.5101 0.334228C26.7917 0.102345 27.1492 -0.0161559 27.513 0.00177384C27.8768 0.0197036 28.221 0.172782 28.4785 0.431234C28.7361 0.689687 28.8887 1.03503 28.9065 1.4001C28.9244 1.76517 28.8063 2.12385 28.5752 2.40639L16.547 14.4576L28.5752 26.5089Z" fill="black"/>
</svg>
