<svg width="66" height="66" viewBox="0 0 66 66" fill="none" xmlns="http://www.w3.org/2000/svg">
<circle cx="33" cy="33" r="25" fill="#FFE600"/>
<circle cx="33" cy="33" r="32.5" stroke="#FFE600"/>
<path fill-rule="evenodd" clip-rule="evenodd" d="M40.2874 36.6843L44.6493 40.9358C45.5511 41.8149 45.5511 43.2453 44.6493 44.1245L43.5588 45.1874C41.7675 46.9332 38.0034 46.8214 35.4988 46.3499C33.2201 45.921 28.8288 44.6473 25.0211 40.9358C21.2057 37.2168 19.8392 32.9016 19.3642 30.6603C18.6189 27.1435 19.0352 24.1018 20.4506 22.7222L21.5409 21.6593C22.4428 20.7803 23.9104 20.7802 24.8123 21.6593L29.1741 25.9109C30.076 26.79 30.076 28.2204 29.1741 29.0996L28.0836 30.1624C27.1817 31.0416 27.1817 32.472 28.0836 33.3511L32.6506 37.7437C33.5561 38.6263 35.0235 38.6264 35.9256 37.7472L37.0161 36.6843C37.9202 35.803 39.3834 35.8031 40.2874 36.6843ZM23.7229 22.7222C23.4222 22.4292 22.9331 22.4292 22.6324 22.7222L22.0898 23.2511L27.5422 28.5655L28.0847 28.0367C28.3854 27.7436 28.3854 27.2669 28.0847 26.9738L23.7229 22.7222ZM35.7912 44.874C33.6858 44.4777 29.6286 43.301 26.1116 39.8729C22.5802 36.4307 21.3146 32.4329 20.8745 30.3562C20.2915 27.6053 20.5342 25.5375 21.1003 24.4131L26.5051 29.6813C25.5132 31.14 25.6762 33.1303 26.9969 34.4175L31.5639 38.8101C32.8807 40.0936 34.9214 40.2534 36.4192 39.2859L41.8284 44.5584C40.18 45.3731 37.6166 45.2176 35.7912 44.874ZM43.0167 43.5903L43.5593 43.0615C43.8599 42.7685 43.8599 42.2917 43.5592 41.9987L39.1974 37.7472C38.896 37.4534 38.4083 37.4534 38.107 37.7472L37.5645 38.2759L43.0167 43.5903ZM35.1765 21.0005C34.8029 21.0005 34.5 21.2894 34.5 21.6458C34.5 22.0022 34.8029 22.2911 35.1765 22.2911C40.0256 22.2911 43.9707 26.0546 43.9707 30.6805C43.9707 31.0369 44.2735 31.3258 44.6471 31.3258C45.0207 31.3258 45.3236 31.0369 45.3236 30.6805C45.3236 25.3429 40.7716 21.0005 35.1765 21.0005ZM34.5 24.9784C34.5 24.6576 34.7763 24.3975 35.1171 24.3975C38.8603 24.3975 41.9057 27.2643 41.9057 30.7881C41.9057 31.109 41.6294 31.3691 41.2885 31.3691C40.9477 31.3691 40.6714 31.109 40.6714 30.7881C40.6714 27.905 38.1797 25.5594 35.1171 25.5594C34.7763 25.5594 34.5 25.2993 34.5 24.9784ZM34.9985 27.7939C34.7232 27.7939 34.5 27.9986 34.5 28.2511C34.5 28.5036 34.7232 28.7083 34.9985 28.7083C36.3728 28.7083 37.4908 29.7338 37.4908 30.9943C37.4908 31.2468 37.714 31.4515 37.9893 31.4515C38.2646 31.4515 38.4877 31.2468 38.4877 30.9943C38.4878 29.2296 36.9224 27.7939 34.9985 27.7939ZM34.5 31.3117C34.5 31.2447 34.5638 31.1904 34.6424 31.1904C34.8781 31.1904 35.0698 31.3537 35.0698 31.5544C35.0698 31.6214 35.006 31.6757 34.9273 31.6757C34.8487 31.6757 34.7849 31.6214 34.7849 31.5544C34.7849 31.4875 34.721 31.433 34.6424 31.433C34.5638 31.433 34.5 31.3787 34.5 31.3117Z" fill="#514F4F"/>
</svg>
