<svg width="124" height="36" viewBox="0 0 124 36" fill="none" xmlns="http://www.w3.org/2000/svg">
<path fill-rule="evenodd" clip-rule="evenodd" d="M50.6752 31.6054C50.4097 31.4675 50.1082 31.3987 49.771 31.3987L49.7709 31.3985C49.4291 31.3985 49.1265 31.4716 48.8632 31.6179C48.5999 31.764 48.3944 31.9665 48.2466 32.2251C48.2697 31.6994 48.4038 31.302 48.6485 31.0328C48.8934 30.7635 49.2768 30.5759 49.7987 30.47L51.3368 30.1457L51.2537 29.7324L49.6185 30.0759C48.9857 30.2116 48.5203 30.4701 48.2224 30.8517C47.9244 31.2332 47.7754 31.7823 47.7754 32.4987C47.7754 33.1855 47.9416 33.724 48.2743 34.1139C48.6068 34.5039 49.0758 34.699 49.6809 34.699C50.041 34.699 50.36 34.6292 50.637 34.4892C50.9142 34.3494 51.1302 34.1532 51.2849 33.901C51.4396 33.6487 51.517 33.3594 51.517 33.0329C51.517 32.715 51.4432 32.4321 51.2953 32.184C51.1474 31.9361 50.9407 31.7432 50.6752 31.6054ZM50.3777 34.1627C50.1767 34.2707 49.9493 34.3248 49.6952 34.3248H49.6949C49.4409 34.3248 49.2122 34.2708 49.009 34.1627C48.8058 34.0546 48.6475 33.903 48.5344 33.708C48.4212 33.513 48.3646 33.2927 48.3646 33.0468C48.3646 32.8009 48.4212 32.5848 48.5344 32.3982C48.6475 32.2117 48.8047 32.0664 49.0056 31.9626C49.2066 31.8587 49.4364 31.8067 49.6951 31.8067C49.9539 31.8067 50.1836 31.8587 50.3845 31.9626C50.5855 32.0664 50.7415 32.2117 50.8523 32.3982C50.9632 32.5846 51.0185 32.8009 51.0185 33.0468C51.0185 33.2927 50.962 33.513 50.8488 33.708C50.7356 33.903 50.5786 34.0546 50.3777 34.1627ZM55.0433 32.4994C55.5007 32.5036 55.8482 32.597 56.0861 32.7792C56.3239 32.9615 56.4429 33.2243 56.4429 33.5676C56.4429 33.9237 56.3147 34.1972 56.0583 34.3879C55.8019 34.5786 55.4311 34.672 54.9461 34.6677L53.4772 34.6614V31.3166H53.9692V32.4866L55.0432 32.4994H55.0433ZM55.6851 34.1369C55.5118 34.2663 55.2565 34.3288 54.9194 34.3245L53.9702 34.3118V32.8236L54.9194 32.8364C55.2612 32.8407 55.5176 32.9021 55.6885 33.0208C55.8593 33.1395 55.9449 33.3219 55.9449 33.5678C55.9449 33.8179 55.8582 34.0076 55.6851 34.1369ZM61.4184 31.2911C61.7602 31.2911 62.0685 31.3632 62.3433 31.5074C62.6181 31.6516 62.8341 31.8529 62.9912 32.1116C63.1482 32.3702 63.2269 32.6626 63.2269 32.9891C63.2269 33.3155 63.1484 33.6081 62.9912 33.8666C62.8341 34.1252 62.6183 34.3277 62.3433 34.4738C62.0685 34.6201 61.7602 34.6932 61.4184 34.6932C61.095 34.6932 60.8018 34.6285 60.5384 34.4992C60.2751 34.37 60.0615 34.1908 59.8975 33.9618C59.7335 33.7329 59.6376 33.47 59.6099 33.1732H58.7785V34.6613H58.2865V31.3165H58.7785V32.7601H59.6168C59.6537 32.4718 59.7541 32.2163 59.9181 31.9938C60.0821 31.7712 60.2935 31.5985 60.5521 31.4756C60.8108 31.3526 61.0995 31.2911 61.4182 31.2911H61.4184ZM62.0945 34.134C61.8936 34.2442 61.6683 34.2993 61.419 34.2993C61.1696 34.2993 60.9443 34.2443 60.7434 34.134C60.5425 34.0238 60.3842 33.869 60.2688 33.6698C60.1532 33.4705 60.0955 33.2436 60.0955 32.9893C60.0955 32.7349 60.1534 32.5081 60.2688 32.3088C60.3842 32.1095 60.5425 31.9558 60.7434 31.8477C60.9443 31.7397 61.1696 31.6856 61.419 31.6856C61.6683 31.6856 61.8936 31.7396 62.0945 31.8477C62.2954 31.9558 62.4537 32.1096 62.5691 32.3088C62.6845 32.5081 62.7422 32.7349 62.7422 32.9893C62.7422 33.2437 62.6845 33.4705 62.5691 33.6698C62.4535 33.869 62.2954 34.0238 62.0945 34.134ZM67.6124 31.7171H66.2336V34.6614H65.7416V31.7171H64.3628V31.3166H67.6124V31.7171ZM69.7261 31.3166H69.234V34.6614H69.6775L72.1025 32.0033V34.6614H72.5945V31.3166H72.158L69.7261 33.9746V31.3166ZM78.955 33.1737H78.1238V34.6619H77.6317V31.317H78.1238V32.786H78.9621L80.244 31.317H80.7774L79.3432 32.9385L80.8813 34.6619H80.2993L78.955 33.1737ZM82.988 34.4738C83.2698 34.6201 83.5862 34.6932 83.9372 34.6932C84.2882 34.6932 84.6046 34.6201 84.8864 34.4738C85.1681 34.3277 85.3887 34.1252 85.5481 33.8666C85.7075 33.6081 85.7871 33.3155 85.7871 32.9891C85.7871 32.6626 85.7075 32.3702 85.5481 32.1116C85.3889 31.8529 85.1683 31.6516 84.8864 31.5074C84.6048 31.3632 84.2882 31.2911 83.9372 31.2911C83.5862 31.2911 83.2698 31.3633 82.988 31.5074C82.7061 31.6516 82.4844 31.8529 82.3228 32.1116C82.1612 32.3701 82.0803 32.6626 82.0803 32.9891C82.0803 33.3155 82.1612 33.6079 82.3228 33.8666C82.4844 34.1252 82.7061 34.3276 82.988 34.4738ZM83.9369 34.293C84.1956 34.293 84.4277 34.2389 84.6333 34.1308C84.8389 34.0226 84.9994 33.869 85.1148 33.6698C85.2302 33.4705 85.2879 33.2437 85.2879 32.9893C85.2879 32.7349 85.2302 32.5081 85.1148 32.3088C84.9994 32.1096 84.8389 31.9558 84.6333 31.8477C84.4277 31.7396 84.1956 31.6856 83.9369 31.6856C83.6783 31.6856 83.4462 31.7397 83.2406 31.8477C83.035 31.9558 82.8734 32.1095 82.7556 32.3088C82.6378 32.5081 82.5788 32.7349 82.5788 32.9893C82.5788 33.2436 82.6378 33.4705 82.7556 33.6698C82.8734 33.869 83.035 34.0228 83.2406 34.1308C83.4462 34.2389 83.6783 34.293 83.9369 34.293ZM90.8104 33.752C90.8104 33.3112 90.5632 33.0377 90.069 32.9318H90.0688C90.2629 32.8682 90.4141 32.7717 90.5226 32.6424C90.6313 32.513 90.6855 32.3574 90.6855 32.175C90.6855 31.8995 90.5679 31.6875 90.3322 31.5391C90.0966 31.3908 89.771 31.3166 89.3554 31.3166H87.7478V34.6614H89.4038C89.8703 34.6614 90.2213 34.5829 90.4569 34.4261C90.6926 34.2692 90.8104 34.0446 90.8104 33.752ZM88.226 32.8047H89.3207C89.6025 32.8047 89.8183 32.756 89.9686 32.6584C90.1187 32.5609 90.1938 32.4188 90.1938 32.2324C90.1938 32.0457 90.1187 31.9059 89.9686 31.8126C89.8185 31.7193 89.6025 31.6726 89.3207 31.6726H88.226V32.8046V32.8047ZM90.0899 34.1656C89.9329 34.2589 89.6973 34.3055 89.3832 34.3055H89.383H88.226V33.1418H89.4316C89.7411 33.1418 89.9675 33.1895 90.1107 33.2848C90.2539 33.3802 90.3255 33.5275 90.3255 33.7267C90.3255 33.926 90.2471 34.0723 90.0899 34.1656ZM94.3715 34.6932C94.0204 34.6932 93.704 34.6201 93.4222 34.4738C93.1404 34.3276 92.9187 34.1252 92.7571 33.8666C92.5954 33.6079 92.5145 33.3155 92.5145 32.9891C92.5145 32.6626 92.5954 32.3701 92.7571 32.1116C92.9187 31.8529 93.1404 31.6516 93.4222 31.5074C93.704 31.3633 94.0204 31.2911 94.3715 31.2911C94.7225 31.2911 95.039 31.3632 95.3207 31.5074C95.6025 31.6516 95.8231 31.8529 95.9823 32.1116C96.1417 32.3702 96.2213 32.6626 96.2213 32.9891C96.2213 33.3155 96.1417 33.6081 95.9823 33.8666C95.823 34.1252 95.6024 34.3277 95.3207 34.4738C95.0389 34.6201 94.7225 34.6932 94.3715 34.6932ZM95.0685 34.1308C94.8629 34.2389 94.6308 34.293 94.3721 34.293C94.1135 34.293 93.8814 34.2389 93.6758 34.1308C93.4702 34.0228 93.3086 33.869 93.1908 33.6698C93.073 33.4705 93.014 33.2436 93.014 32.9893C93.014 32.7349 93.073 32.5081 93.1908 32.3088C93.3086 32.1095 93.4702 31.9558 93.6758 31.8477C93.8814 31.7397 94.1135 31.6856 94.3721 31.6856C94.6308 31.6856 94.8629 31.7396 95.0685 31.8477C95.274 31.9558 95.4345 32.1096 95.5499 32.3088C95.6654 32.5081 95.7231 32.7349 95.7231 32.9893C95.7231 33.2437 95.6654 33.4705 95.5499 33.6698C95.4345 33.869 95.274 34.0226 95.0685 34.1308ZM100.061 31.2911C100.403 31.2911 100.712 31.3622 100.989 31.5042C101.266 31.6462 101.484 31.8465 101.641 32.1051C101.798 32.3638 101.876 32.6584 101.876 32.9891C101.876 33.324 101.798 33.6208 101.641 33.8793C101.484 34.138 101.268 34.3383 100.993 34.4803C100.718 34.6223 100.407 34.6933 100.061 34.6933C99.7653 34.6933 99.4985 34.6371 99.2606 34.5249C99.0227 34.4125 98.8275 34.2483 98.675 34.0321V35.8954H98.183V31.3168H98.6543V31.9781C98.802 31.7577 98.9972 31.5881 99.2397 31.4694C99.4822 31.3507 99.7558 31.2913 100.061 31.2913L100.061 31.2911ZM100.718 34.1308C100.511 34.2389 100.28 34.293 100.026 34.293C99.767 34.293 99.5349 34.2389 99.3293 34.1308C99.1237 34.0228 98.9621 33.869 98.8443 33.6698C98.7266 33.4705 98.6676 33.2436 98.6676 32.9893C98.6676 32.7349 98.7265 32.5093 98.8443 32.3121C98.9621 32.1149 99.1237 31.9613 99.3293 31.8509C99.5349 31.7408 99.767 31.6856 100.026 31.6856C100.28 31.6856 100.511 31.7408 100.718 31.8509C100.926 31.9613 101.089 32.1149 101.207 32.3121C101.325 32.5093 101.384 32.7349 101.384 32.9893C101.384 33.2437 101.325 33.4705 101.207 33.6698C101.089 33.869 100.926 34.0226 100.718 34.1308ZM105.166 33.1737H104.335V34.6619H103.843V31.317H104.335V32.786H105.173L106.455 31.317H106.989L105.555 32.9385L107.093 34.6619H106.511L105.166 33.1737ZM109.268 31.3166H108.776V34.6614H109.22L111.645 32.0033V34.6614H112.137V31.3166H111.7L109.268 33.9746V31.3166ZM114.451 31.3166H114.943V32.7983H117.237V31.3166H117.729V34.6614H117.237V33.186H114.943V34.6614H114.451V31.3166ZM120.528 31.7171H122.613V31.3166H120.036V34.6614H120.528V31.7171Z" fill="black" fill-opacity="0.8"/>
<path fill-rule="evenodd" clip-rule="evenodd" d="M1.05341 26.3577L13.8791 19.5617C13.8749 19.5086 13.8728 19.4549 13.8728 19.4009L13.876 19.2908L1.05357 12.4962V26.3577H1.05341ZM16.7612 17.2968C17.1954 17.39 17.5838 17.5935 17.8896 17.8731C18.0418 18.0132 18.1727 18.1721 18.2792 18.3451L30.8927 11.6612L16.7612 4.17296V17.2968ZM18.5788 19.2984L18.5815 19.4008C18.5815 19.452 18.5795 19.5032 18.5758 19.5535L31.4168 26.3577V12.4962L18.579 19.2985L18.5788 19.2984ZM18.2554 20.4972C18.1544 20.6547 18.0311 20.7991 17.8917 20.9276C17.5848 21.2087 17.1954 21.4131 16.7612 21.5058V34.6819L30.8927 27.1937L18.2554 20.4972ZM15.7084 21.5089C15.2679 21.4177 14.873 21.2123 14.5642 20.9292C14.4257 20.8017 14.3042 20.6587 14.203 20.5032L1.57688 27.1934L15.7084 34.6816V21.5089ZM14.1775 18.3383C14.2822 18.1683 14.4117 18.0128 14.5612 17.875C14.8718 17.5905 15.2669 17.3847 15.7075 17.2934V4.17296L1.57596 11.6612L14.1775 18.3383ZM17.1487 18.5552C16.9133 18.3397 16.5871 18.2063 16.2271 18.2063C15.8671 18.2063 15.5407 18.3401 15.3055 18.5552C15.0707 18.7712 14.9254 19.0706 14.9254 19.401C14.9254 19.7314 15.0712 20.031 15.3055 20.2468C15.5408 20.4618 15.8671 20.5957 16.2271 20.5957C16.5871 20.5957 16.9135 20.4623 17.1487 20.2468C17.3828 20.0309 17.5286 19.7314 17.5286 19.401C17.5286 19.0706 17.3833 18.771 17.1487 18.5552ZM16.53 2.93758L32.1738 11.2273C32.3485 11.3061 32.4691 11.4703 32.4691 11.6611V27.1932V27.2008V27.2056L32.4684 27.2086L32.4675 27.2241V27.2304L32.4668 27.2319L32.4664 27.2397V27.2426L32.4652 27.2474L32.4648 27.2548L32.4643 27.2552L32.4627 27.2668L32.4617 27.2706C32.4333 27.4276 32.3244 27.5591 32.1738 27.6271L16.53 35.9169L16.5291 35.9173L16.5259 35.9192L16.5222 35.9215L16.5185 35.9235L16.518 35.9239L16.5144 35.9264L16.5102 35.9283L16.5077 35.9298L16.5061 35.9306L16.5019 35.9331L16.4977 35.935L16.4971 35.9355L16.4961 35.9359L16.4941 35.9374L16.4899 35.9393L16.4862 35.9412L16.4856 35.9418L16.4814 35.9437L16.4773 35.9456L16.4746 35.9471L16.4725 35.9475L16.4683 35.9494L16.4642 35.9513L16.4632 35.9518L16.46 35.9532L16.4559 35.9551L16.4517 35.9571H16.4511L16.4469 35.959L16.4421 35.9604L16.44 35.9615L16.438 35.9623L16.4338 35.9638L16.429 35.9657L16.4285 35.9661L16.4244 35.9672L16.4202 35.9686L16.4165 35.9701L16.4156 35.9705L16.4114 35.972L16.4066 35.9735L16.4045 35.9739L16.4018 35.9749L16.397 35.9764L16.3929 35.9779H16.3918L16.3881 35.9789L16.3833 35.9804L16.3796 35.9813H16.3785L16.3737 35.9827L16.3689 35.9836L16.3668 35.9842L16.3641 35.9851L16.3593 35.9861L16.3545 35.9871H16.354L16.3499 35.9882L16.3446 35.989L16.3409 35.9901H16.34L16.3352 35.9911L16.3304 35.992H16.3283L16.3256 35.9926L16.3203 35.9936L16.3155 35.994H16.315L16.3109 35.995L16.3056 35.9955L16.3019 35.9959H16.3008L16.2955 35.9965L16.2907 35.997L16.2887 35.9974H16.2855L16.2807 35.998L16.2754 35.9984L16.2706 35.999H16.2653L16.2616 35.9995H16.26H16.2552L16.25 35.9999H16.2484H16.2447H16.2399H16.2346H16.2293H16.2246H16.2209H16.2193L16.214 35.9995H16.2092H16.2076L16.2039 35.999H16.1987L16.1939 35.9984L16.1886 35.998L16.1838 35.9974H16.1806L16.1785 35.997L16.1737 35.9965L16.1684 35.9959H16.1673L16.1636 35.9955L16.1584 35.995L16.1542 35.994H16.1537L16.1489 35.9936L16.1437 35.9926L16.1409 35.992H16.1389L16.1341 35.9911L16.1293 35.9901H16.1282L16.1245 35.989L16.1192 35.9882L16.115 35.9871H16.1146L16.1098 35.9861L16.105 35.9851L16.1024 35.9842L16.1003 35.9836L16.0955 35.9827L16.0907 35.9813H16.0896L16.086 35.9804L16.0812 35.9789L16.0775 35.9779H16.077L16.0722 35.9764L16.0674 35.9749L16.0647 35.9739L16.0626 35.9735L16.0578 35.972L16.0537 35.9705L16.0525 35.9701L16.0489 35.9686L16.0447 35.9672L16.0406 35.9661L16.0401 35.9657L16.0353 35.9638L16.0311 35.9623L16.029 35.9615L16.027 35.9604L16.0222 35.959L16.018 35.9571H16.0175L16.0134 35.9551L16.0092 35.9532L16.006 35.9518L16.0049 35.9513L16.0008 35.9494L15.9966 35.9475L15.9945 35.9471L15.9918 35.9456L15.9876 35.9437L15.9835 35.9418L15.983 35.9412L15.9793 35.9393L15.9752 35.9374L15.9731 35.9359L15.972 35.9355L15.9715 35.935L15.9673 35.9331L15.9632 35.9306L15.9616 35.9298L15.9589 35.9283L15.9547 35.9264L15.951 35.9239L15.9506 35.9235L15.9469 35.9215L15.9432 35.9192L15.94 35.9173L15.939 35.9169L0.295256 27.6271C0.120532 27.5484 0 27.3842 0 27.1933V11.6613V11.6535V11.6487L0.000479572 11.6457L0.00159857 11.6302V11.6239L0.00207814 11.6224L0.00271757 11.6146V11.6117L0.00383657 11.6068L0.00431615 11.5995L0.00479572 11.5991L0.00639429 11.5875L0.00751329 11.5837C0.0359679 11.4267 0.144831 11.2954 0.295416 11.2271L15.9392 2.93744L15.9402 2.937L15.9434 2.93509L15.947 2.9326L15.9507 2.93069L15.9512 2.93025L15.9549 2.92775L15.959 2.92526L15.9617 2.92438L15.9633 2.92335L15.9675 2.92086L15.9717 2.91836H15.9721L15.9753 2.91646L15.9795 2.91396L15.9832 2.9125L15.9836 2.91206L15.9878 2.91015L15.992 2.90765L15.9947 2.90677L15.9968 2.90575L16.0009 2.90384L16.0051 2.90193H16.0062L16.0094 2.90002L16.0135 2.89812L16.0167 2.89709L16.0179 2.89665H16.0183L16.0225 2.89474L16.0273 2.89284L16.0294 2.8924L16.0314 2.89137L16.0356 2.88946L16.0383 2.88843L16.0404 2.88785L16.0409 2.88741L16.045 2.88594L16.0492 2.88447L16.0529 2.88345L16.054 2.88301L16.0581 2.88154L16.0629 2.88007L16.065 2.87948L16.0677 2.8786L16.0725 2.87714L16.0773 2.87567H16.0778L16.0815 2.8742L16.0863 2.87332L16.09 2.8723L16.0911 2.87171L16.0959 2.87083L16.1007 2.86936H16.1027L16.1053 2.86833L16.1101 2.86731L16.1149 2.86628H16.1154L16.1195 2.8654L16.1248 2.86437L16.1285 2.86335H16.1296L16.1344 2.86247L16.1392 2.86144H16.1413L16.144 2.86085L16.1493 2.85997L16.1541 2.85938H16.1545L16.1587 2.8585L16.164 2.85792L16.1676 2.85748H16.1688L16.174 2.85704L16.1761 2.85645L16.1809 2.85601H16.1841L16.1889 2.85542L16.1942 2.85498L16.199 2.85454H16.2042L16.2079 2.85396H16.2095H16.2143L16.2196 2.85352H16.2212H16.2249H16.2297H16.2349H16.2402H16.245H16.2487H16.2503L16.2556 2.85396H16.2604H16.262L16.2656 2.85454H16.2709L16.2757 2.85498L16.281 2.85542L16.2858 2.85601H16.289L16.2938 2.85645L16.2958 2.85704L16.3011 2.85748H16.3022L16.3059 2.85792L16.3112 2.8585L16.3153 2.85938H16.3158L16.3206 2.85997L16.3259 2.86085L16.3286 2.86144H16.3307L16.3355 2.86247L16.3403 2.86335H16.3412L16.3449 2.86437L16.3502 2.8654L16.3544 2.86628H16.3548L16.3596 2.86731L16.3644 2.86833L16.3671 2.86936H16.3692L16.374 2.87083L16.3788 2.87171L16.3799 2.8723L16.3836 2.87332L16.3884 2.8742L16.3921 2.87567H16.3932L16.3974 2.87714L16.4022 2.8786L16.4049 2.87948L16.4069 2.88007L16.4117 2.88154L16.4159 2.88301L16.4169 2.88345L16.4205 2.88447L16.4247 2.88594L16.4288 2.88741L16.4293 2.88785L16.432 2.88843L16.4341 2.88946L16.4383 2.89137L16.4404 2.8924L16.4424 2.89284L16.4472 2.89474L16.4514 2.89665H16.452L16.453 2.89709L16.4562 2.89812L16.4603 2.90002L16.4635 2.90193H16.4645L16.4687 2.90384L16.4728 2.90575L16.4749 2.90677L16.4776 2.90765L16.4818 2.91015L16.4859 2.91206L16.4866 2.9125L16.4902 2.91396L16.4944 2.91646L16.4976 2.91836H16.4982L16.5024 2.92086L16.5065 2.92335L16.5081 2.92438L16.5107 2.92526L16.5149 2.92775L16.5185 2.93025L16.519 2.93069L16.5227 2.9326L16.5264 2.93509L16.5296 2.937L16.5305 2.93744L16.53 2.93758Z" fill="black"/>
<path fill-rule="evenodd" clip-rule="evenodd" d="M90.0167 7.51139C91.9 7.51139 93.6175 7.90018 95.1686 8.6766C95.945 9.06496 96.6398 9.52975 97.2509 10.0698C97.8637 10.6109 98.3936 11.2272 98.8389 11.9171C99.2837 12.6065 99.6184 13.3436 99.8416 14.1272C100.065 14.9083 100.176 15.7329 100.176 16.5978C100.176 17.4625 100.065 18.2881 99.8416 19.0721C99.6189 19.857 99.2841 20.5991 98.8389 21.2949C98.3937 21.9909 97.8637 22.6122 97.2514 23.1556C96.6409 23.6976 95.9455 24.1643 95.1686 24.5533C94.394 24.9412 93.5748 25.233 92.7158 25.4267C91.8557 25.6209 90.9551 25.7185 90.0166 25.7185C88.9291 25.7185 87.9028 25.5919 86.9384 25.3402C85.9751 25.0891 85.073 24.7094 84.2345 24.2035C83.3971 23.6982 82.6791 23.1036 82.0838 22.42C81.7516 22.0389 81.4575 21.6302 81.2011 21.1939V25.6169H79.8569V0H81.2011V12.0163C81.4589 11.5839 81.7553 11.1781 82.0901 10.7994C82.6879 10.1226 83.4113 9.53034 84.2555 9.02505C85.0997 8.5202 86.0035 8.14094 86.963 7.88933C87.9236 7.63771 88.9422 7.51153 90.0164 7.51153L90.0167 7.51139ZM70.1853 3.19843C70.339 3.25535 70.5078 3.28484 70.6869 3.28484V3.28514C70.8547 3.28514 71.0159 3.25521 71.1674 3.19769C71.3132 3.14209 71.4537 3.05699 71.5848 2.94446C71.7164 2.83135 71.8163 2.70913 71.8826 2.57973C71.9526 2.44299 71.9884 2.29906 71.9884 2.14985C71.9884 1.99037 71.9533 1.84014 71.8837 1.70002C71.8148 1.56329 71.7127 1.44019 71.5779 1.33192C71.3159 1.12079 71.018 1.01457 70.6869 1.01457C70.5101 1.01457 70.3432 1.04157 70.1896 1.09468C70.0348 1.14867 69.8948 1.22995 69.769 1.33808C69.5132 1.55786 69.3847 1.82884 69.3847 2.14971C69.3847 2.29789 69.4179 2.43991 69.4836 2.57474C69.5473 2.70561 69.6409 2.82885 69.7626 2.93948C69.8878 3.05347 70.0289 3.14048 70.1853 3.19843ZM65.7786 7.9802L56.331 25.617H55.1999C52.5882 20.7245 49.9663 15.8356 47.3446 10.9471L45.5566 7.61297H47.0809L55.7658 24.0006L64.4506 7.61297H65.9749L65.7786 7.98005V7.9802ZM70.2928 7.61297H70.293H71.3588V25.617H70.0145V7.61297H70.2928ZM92.3914 24.3103C91.642 24.4793 90.8498 24.5644 90.0171 24.5644H90.0168C89.1841 24.5644 88.392 24.4793 87.6424 24.3103C86.8924 24.1411 86.1788 23.8861 85.505 23.5475C84.8318 23.2089 84.2306 22.8035 83.7048 22.3326C83.1802 21.862 82.7258 21.3224 82.3443 20.7171C81.9643 20.1128 81.6785 19.4663 81.4879 18.7809C81.2974 18.0953 81.2016 17.3668 81.2016 16.5977C81.2016 15.8285 81.2974 15.1001 81.4879 14.4146C81.6783 13.7287 81.9648 13.0823 82.3447 12.478C82.7242 11.8742 83.1784 11.337 83.7048 10.8679C84.2303 10.4003 84.8302 9.99879 85.5029 9.66648C86.1788 9.33255 86.8925 9.08138 87.6415 8.91471C88.3905 8.74848 89.1833 8.665 90.0169 8.665C90.8507 8.665 91.6435 8.74848 92.3924 8.91471C93.1413 9.08152 93.8557 9.3327 94.531 9.66648C95.2043 9.99893 95.8042 10.4003 96.3291 10.8679C96.8559 11.337 97.3103 11.8741 97.6898 12.478C98.0697 13.0823 98.356 13.7286 98.5466 14.4146C98.7367 15.1002 98.8324 15.8291 98.8324 16.5977C98.8324 17.3664 98.7367 18.0954 98.5466 18.7809C98.356 19.4669 98.0697 20.1138 97.6898 20.7181C97.3096 21.3224 96.8555 21.861 96.3286 22.333C95.8023 22.8045 95.2017 23.2104 94.5291 23.5475C93.8541 23.8866 93.1404 24.1417 92.3914 24.3103ZM123.007 16.8535H105.18C105.221 18.2834 105.615 19.5708 106.357 20.7137C106.75 21.3195 107.22 21.8601 107.762 22.3311C108.302 22.8012 108.921 23.207 109.615 23.5456C110.306 23.8847 111.044 24.1394 111.826 24.3088C112.609 24.4789 113.437 24.5644 114.307 24.5644C114.986 24.5644 115.643 24.5079 116.278 24.3958C116.913 24.2837 117.528 24.1146 118.119 23.891C118.707 23.6683 119.244 23.3939 119.729 23.0697C120.212 22.7475 120.643 22.3741 121.021 21.9514L121.209 21.7422L122.173 22.5711L121.995 22.7556C121.533 23.2338 121.018 23.6565 120.451 24.0221C119.884 24.3873 119.262 24.6979 118.585 24.9541C117.911 25.2082 117.217 25.4005 116.504 25.5274C115.792 25.6541 115.057 25.7183 114.307 25.7183C112.319 25.7183 110.536 25.33 108.96 24.5541C108.17 24.1658 107.463 23.6986 106.842 23.1565C106.22 22.6135 105.682 21.9928 105.23 21.2966C104.778 20.6 104.437 19.8575 104.21 19.073C103.984 18.2889 103.871 17.4634 103.871 16.5976C103.871 15.7339 103.976 14.9102 104.185 14.13C104.394 13.3498 104.709 12.6136 105.127 11.9233C105.546 11.2325 106.046 10.615 106.624 10.0749C107.201 9.53488 107.86 9.06862 108.598 8.67924C110.072 7.90106 111.726 7.51124 113.558 7.51124C114.459 7.51124 115.322 7.60689 116.146 7.79865C116.97 7.98997 117.755 8.27738 118.497 8.66046C119.239 9.04265 119.905 9.50055 120.491 10.0295C121.076 10.5594 121.583 11.1614 122.008 11.8342C122.434 12.5087 122.754 13.2308 122.967 13.998C123.179 14.7626 123.285 15.5738 123.285 16.4283V16.8529H123.007L123.007 16.8535ZM111.372 8.90209C112.062 8.74466 112.792 8.66544 113.559 8.66544L113.559 8.665C114.326 8.665 115.056 8.74422 115.746 8.90224C116.437 9.06025 117.094 9.29778 117.715 9.61381C118.336 9.92983 118.899 10.3066 119.4 10.7428C119.902 11.1796 120.345 11.6775 120.726 12.2336C121.106 12.7887 121.401 13.3785 121.61 13.9993C121.792 14.5398 121.91 15.1074 121.962 15.6997H105.194C105.246 15.1065 105.363 14.5389 105.542 13.9988C105.748 13.3776 106.039 12.7878 106.413 12.2318C106.786 11.6768 107.224 11.1793 107.722 10.7435C108.221 10.3073 108.782 9.93012 109.403 9.6141C110.023 9.29866 110.681 9.06098 111.372 8.90209Z" fill="black" fill-opacity="0.8"/>
</svg>
